<?xml version="1.0" encoding="UTF-8"?> <svg xmlns="http://www.w3.org/2000/svg" xmlns:xlink="http://www.w3.org/1999/xlink" width="159pt" height="44pt" viewBox="0 0 159 44" version="1.1"><defs><linearGradient id="linear0" gradientUnits="userSpaceOnUse" x1="-55.8464" y1="77.401" x2="209.9898" y2="77.401" gradientTransform="matrix(0.284208,0,0,0.284974,0.191748,0)"><stop offset="0.1953" style="stop-color:rgb(0%,42.352941%,0%);stop-opacity:1;"></stop><stop offset="0.8418" style="stop-color:rgb(49.411765%,75.294118%,17.647059%);stop-opacity:1;"></stop></linearGradient></defs><g id="surface1"><path style=" stroke:none;fill-rule:nonzero;fill:rgb(0%,12.941176%,16.078431%);fill-opacity:1;" d="M 62.632812 12.652344 L 66.269531 12.652344 L 73.601562 31.6875 L 69.851562 31.6875 L 68.375 27.757812 L 60.644531 27.757812 L 59.078125 31.6875 L 55.328125 31.6875 Z M 64.480469 17.695312 L 61.980469 24.222656 L 67.007812 24.222656 Z M 64.480469 17.695312 "></path><path style=" stroke:none;fill-rule:nonzero;fill:rgb(0%,12.941176%,16.078431%);fill-opacity:1;" d="M 76.445312 12.652344 L 81.019531 12.652344 C 84.347656 12.652344 86.703125 13.050781 88.75 15.074219 C 90.457031 16.757812 91.507812 19.40625 91.507812 22.425781 C 91.507812 25.675781 90.285156 28.382812 88.269531 29.980469 C 86.109375 31.6875 83.863281 31.6875 81.078125 31.6875 L 76.445312 31.6875 Z M 80.054688 16.214844 L 80.054688 28.15625 L 81.957031 28.15625 C 83.949219 28.15625 85.339844 27.898438 86.449219 26.703125 C 87.328125 25.761719 87.839844 24.222656 87.839844 22.34375 C 87.839844 18.351562 85.652344 16.214844 81.53125 16.214844 C 81.53125 16.214844 80.054688 16.214844 80.054688 16.214844 Z M 80.054688 16.214844 "></path><path style=" stroke:none;fill-rule:nonzero;fill:rgb(0%,12.941176%,16.078431%);fill-opacity:1;" d="M 94.664062 12.652344 L 98.273438 12.652344 L 98.273438 31.6875 L 94.664062 31.6875 Z M 94.664062 12.652344 "></path><path style=" stroke:none;fill-rule:nonzero;fill:rgb(0%,12.941176%,16.078431%);fill-opacity:1;" d="M 100.433594 12.652344 L 110.917969 12.652344 L 110.917969 16.214844 L 107.421875 16.214844 L 107.421875 31.6875 L 103.8125 31.6875 L 103.8125 16.214844 L 100.433594 16.214844 Z M 100.433594 12.652344 "></path><path style=" stroke:none;fill-rule:nonzero;fill:rgb(0%,12.941176%,16.078431%);fill-opacity:1;" d="M 113.164062 12.652344 L 116.773438 12.652344 L 116.773438 31.6875 L 113.164062 31.6875 Z M 113.164062 12.652344 "></path><path style=" stroke:none;fill-rule:nonzero;fill:rgb(0%,12.941176%,16.078431%);fill-opacity:1;" d="M 139.625 22.226562 C 139.625 27.8125 135.277344 32.144531 129.820312 32.144531 C 124.191406 32.144531 119.871094 27.699219 119.871094 22.140625 C 119.871094 16.5 124.363281 12.167969 129.761719 12.167969 C 135.019531 12.167969 139.625 16.414062 139.625 22.226562 Z M 123.539062 22.226562 C 123.539062 26.105469 126.4375 28.667969 129.789062 28.667969 C 133.230469 28.667969 135.988281 25.820312 135.988281 22.199219 C 135.988281 18.695312 133.371094 15.644531 129.761719 15.644531 C 126.351562 15.644531 123.539062 18.296875 123.539062 22.226562 Z M 123.539062 22.226562 "></path><path style=" stroke:none;fill-rule:nonzero;fill:rgb(0%,12.941176%,16.078431%);fill-opacity:1;" d="M 143.007812 12.652344 L 146.472656 12.652344 L 154.601562 25.164062 L 154.601562 12.652344 L 158.210938 12.652344 L 158.210938 31.6875 L 154.714844 31.6875 L 146.585938 19.207031 L 146.585938 31.6875 L 142.976562 31.6875 Z M 143.007812 12.652344 "></path><path style=" stroke:none;fill-rule:nonzero;fill:url(#linear0);" d="M 37.335938 0.0585938 L 7.15625 0.0585938 C 3.375 0.0585938 0.304688 3.132812 0.304688 6.894531 L 0.304688 37.160156 C 0.304688 40.921875 3.375 44 7.15625 44.058594 L 37.335938 44.058594 C 41.117188 44.058594 44.1875 40.949219 44.1875 37.1875 L 44.1875 6.925781 C 44.1875 3.132812 41.089844 0.0585938 37.335938 0.0585938 Z M 16.421875 33.796875 L 9.769531 33.796875 C 8.433594 33.796875 7.582031 32.316406 8.261719 31.175781 L 19.914062 11.511719 C 20.882812 9.859375 23.269531 9.886719 24.207031 11.542969 L 26.9375 16.1875 C 27.21875 16.671875 27.21875 17.296875 26.9375 17.78125 L 17.898438 32.941406 C 17.585938 33.457031 17.015625 33.796875 16.421875 33.796875 Z M 34.863281 33.796875 L 27.019531 33.796875 C 26.792969 33.796875 26.566406 33.65625 26.453125 33.457031 L 23.894531 29.125 C 23.410156 28.296875 23.410156 27.300781 23.894531 26.503906 L 27.789062 19.976562 C 28.128906 19.40625 28.953125 19.40625 29.292969 19.976562 L 36.199219 31.433594 C 36.824219 32.457031 36.085938 33.796875 34.863281 33.796875 Z M 34.863281 33.796875 "></path></g></svg> 